<?xml version="1.0" encoding="UTF-8"?>
<svg id="Layer_2" data-name="Layer 2" xmlns="http://www.w3.org/2000/svg" viewBox="0 0 795.38 795.38">
  <defs>
    <style>
      .cls-1 {
        fill: #fff;
      }
    </style>
  </defs>
  <g id="Layer_1-2" data-name="Layer 1">
    <g>
      <rect x="0" y="0" width="795.38" height="795.38" rx="397.69" ry="397.69"/>
      <g>
        <path class="cls-1" d="M130.5,546.58c-1.43-7.17,2.12-13.63,7.93-17.25,14.55-9.06,30.37-14.5,46.79-19.33,3.13-.92,5.32-2.6,7.21-5.27,17.79-25.14,36.35-49.24,59.08-70.17,2.58-2.38,6.25-3.54,9.56-2.31l10.69,3.97c5.73,2.13,7.12,7.37,4.99,12.92-6.16,16.09-11.46,32.25-15.71,49.39l11.98,1.49c6.82-17.26,25.7-46.67,45.35-38.23,5.23,2.25,8.81,7.08,8.51,13.06-.72,14.4-11.87,28.35-18.26,21.64-.73-.76-1.11-3.27-.73-4.28l2.92-7.87c.98-2.63,1.48-4.98,1.22-8.34-3.81,2.17-6.21,4.83-8.56,8.2-6.75,9.69-11.69,20.48-14.41,32.06-1.35,5.75-1.73,14.35,1.81,16.1,4.34,2.15,12.31-5.39,17.1-10.11,5.96-6.65,11.24-13.44,16.36-20.82,5.8-16.82,17.74-37.34,34.42-44.03,5.08-1.69,10.34-1.21,14.62,2.13,4.22-.49,8.18.62,11.45,3.16,3.64,2.27,4.66,6.29,3.21,10.35l-9.92,27.84c-1.61,4.51-2.67,8.73-2.98,13.91,6.12-7.08,10.6-14.48,15.26-22.26,4.48-14.98,17.11-35.57,31.66-40.36,5.36-1.76,10.99-.63,15.13,3.45,3.34-9.65,6.96-18.67,11.51-27.62,1.18-2.32,3.4-3.85,6.18-3.53,2.93.34,6.08,1.7,8.18,3.59,2.43,2.19,2.5,5.09,1.33,7.91-12.09,29.23-23.11,57.02-24.96,88.92-.11,1.95-2.14,4.11-3.51,4.78-4.62,2.25-10.72-2.42-11.16-6.52l-.9-8.43c-6.08,9.51-14.43,21.52-25.85,17.44-6.32-2.26-9.76-7.94-10.79-14.52-5.51,7.71-12.08,19.96-19.89,18.97-6.69-.85-9.1-7.23-9.36-14.84-3.45,5.71-6.94,10.84-11.48,15.34-5.98,5.93-14.6,6.61-20.64.4-2.96-3.04-4.13-7.24-4.93-11.69-7.1,10.03-15.04,20.41-26.39,23.74-11.73,3.45-23.35-3.82-25.75-15.73-1.43-7.09-1.1-13.65.44-21.33l-11.45,1.68c-3.84,22.33-4.98,48.35,1.58,69.88.68,2.24.45,4.8-.84,6.58s-3.77,3.01-6.3,3.15c-6.89.38-12.64-3.82-15.83-9.94-7.66-14.71-5.15-44.19-2.67-61.92.07-.53.12-1.91-.31-2.07l-2.33-.86-24.35,6.45c-2.99,1.27-5.16,2.98-6.72,5.89-9.54,17.76-18.86,35.39-25.66,54.41-1.58,4.41-4.15,7.42-9.46,6.28-8.55-1.83-13.62-10.83-10.99-19.6,2.14-7.14,5.61-13.65,9.15-20.22l6.88-12.77c-9.17,3.7-16.57,8.46-24.18,13.71-1.78,3.28-5.35,4.11-8.72,2.54-3.06-2.01-5.7-5.05-6.51-9.11ZM217.53,502.56l20.47-2.71,12.12-40.78c-8.81,8.96-15.4,18.65-22.48,28.35l-10.11,15.14ZM412.55,508.98c5.01-6.86,8.81-13.95,12.61-21.32,3.15-6.1,9.06-19.88,5.63-20.59-8.34-1.73-27.89,33.17-24.67,47.36,2.73-.95,4.57-2.91,6.43-5.45ZM349.47,512.06l14.88-26.09c2.67-4.67,5.03-13.4,2.64-13.34-4,.1-10.08,7.51-13.24,12.18-6.25,9.23-10.85,18.98-13.21,29.89-.59,2.72-.86,5.24,0,7.85,3.82-3.34,6.56-6.33,8.93-10.49Z"/>
        <path class="cls-1" d="M195.79,460.82c-4.37-8.5-1.87-22.91.16-33.45,3.37-17.53,8.53-33.96,14.82-50.74,10.2-27.22,21.74-53.42,34.33-79.53l4.77-10.99c-25.41,11.98-54.56,28.47-75.69,46.24-3.34,2.81-6.69,6.59-5.72,9.6.8,2.48,4.92,2.7,4.83,6.16-.12,4.34-13.33,7.13-24.35-.93-11.06-8.1-14.29-21.78-8.25-34.26,2.86-5.9,7.36-10.73,12.47-15.19,9.74-8.52,19.96-15.9,31.14-22.56,16.83-10.03,33.82-18.29,52.12-25.32,40.79-15.66,77.74-24.69,121.45-28.4,17.4-1.48,38.31-1.58,54.87,2.41,14.13,3.4,27.96,11.96,26.92,26.72-.73,10.33-10.07,19.27-14.12,16.45-.58-.4-.8-1.95-.48-2.62,2.29-4.79.52-9.68-4.25-12.12-14.86-7.62-43.47-5.47-61.23-2.68-23.12,3.63-45.14,9.69-67.55,17.9,5.04,3.29,5.78,8.43,3.18,13.48l-26.51,51.45c-17.07,35.45-32,74.07-42.06,112-7.55,7.57-14.24,15.38-20.82,23.75-4.72-.85-7.78-3.59-10.03-7.38Z"/>
        <path class="cls-1" d="M525.2,427.12c-6.43-1.9-10.14-8.05-8.88-14.37l4.27-21.41-15.56,15.55c-5.38,5.38-11.78,9.02-18.82,11.95-11.81,4.79-25.21,3.46-35.21-4.61-13.56-10.94-13.3-30.69-8.53-46.94,7.1-24.18,25.46-54.13,48.98-64.31,8.99-3.89,18.35-2.78,26.55,2.34,12.12,7.56,13.38,20.42,8.09,33.51-6.25,15.45-17.18,28.92-31.43,37.44-7.36,4.4-14.83,6.74-23.61,5.58-1.05,3.42-1.35,7.15-.76,10.72,1.61,9.78,15.18,3.55,23.44-2.29,16.42-11.81,29.22-26.87,41.97-42.51,10.04-23.48,20.65-46.18,33.16-68.26,2.26-3.99,6.12-6.26,10.59-5.7,4.94.62,9.28,2.99,12.84,6.15,4.49,3.98,5.52,9.61,2.61,14.91l-18.69,36.72,24.34-18.16,16.29-9.15c6.55-1.15,12.97,1.64,16.72,7.13,3.1,4.54,1.84,10.27-2.87,13.43l-57.49,38.59c8.76,16.46,23.43,30.86,41.77,35.62,12.68,3.22,28.33-.4,34.6-11.79.35-.64,2.05-1.39,2.78-1.33,5.76.52,8.61,17.69-7.58,30.26-7.13,5.54-15.62,8.61-24.77,9.37-28.96,2.42-52.6-16.91-67.3-41.6l-14.6,33.55-2.29,4.84c-1.93,3.73-6.14,6.11-10.61,4.79ZM504.29,333.02c1.25-2.74,1.95-5.4,1.41-8.43-4.29,1.65-7.15,4.29-10.04,7.46-8.26,9.05-14.51,19.5-19.06,31.28,11.58-4.61,22.59-19.14,27.69-30.31Z"/>
        <path class="cls-1" d="M273.4,429.78c-21.95-6.92-22.96-29.69-15.52-49.79,7.62-20.57,20.68-38.68,37.76-52.43,13.93-11.21,31.57-19.34,46.75-7.92,3.1,2.34,4.67,5.62,6.12,9.44,4.61-4.24,10.96-3.77,16.06-.97,5.88,3.22,7.93,9.27,4.68,15.12-5.69,10.24-11.25,20.31-16.15,30.97-3.46,7.53-6.43,14.48-8.41,22.82l7.47-6.6,22.15-26.76c5.62-14.27,11.65-27.77,19.49-40.72,2.56-4.5,6.98-6.54,11.97-5.25,3.42.89,6.69,2.51,8.85,5.29s2.05,5.63,1.3,9.08c6.43-7.56,13.33-14.19,22.11-18.69,7.94-4.07,17.76-5.74,21.87,1.59,1.51,2.69,1.42,6.29-.1,8.87l-9.26,15.63c-1.17,1.98-4.17,2.14-6.37,2.45-4.75.68-8.89,2.87-12.84,5.51-17.62,11.77-31.74,36.26-40.5,55.7l-8.44,18.7c-2.35,5.21-8.46,6.52-13.06,3.87-3.63-2.09-6.36-5.01-6.72-9.47l.67-14.42c-7.03,8.65-16.66,21.68-26.28,24.91-8.18,2.74-16.57-2.74-18.72-10.88-1.14-4.34-.91-8.55-.67-13.21l-13.83,15.68c-3.94,4.47-8.96,7.93-14.19,10.52s-10.5,2.75-16.21.96ZM291.11,401.72c6.61-5.83,12.47-11.72,17.69-18.59l19.38-25.48c4.72-6.2,10.48-17.53,6.54-19.32-3.24-1.47-10.93,3.83-14.95,7.46-13.84,12.5-24.74,27.95-31.96,45.15-1.99,4.73-3.12,9.01-3.7,14.41,2.69-.44,4.8-1.69,7.01-3.64Z"/>
        <path class="cls-1" d="M450.47,506.25c-1.96-15.27,6.26-34,15.41-46.32,3.86-5.19,8.22-9.58,13.75-12.82,7.35-4.3,16.74-2.88,22.03,3.86,9.93,12.66-11.24,47.55-31.87,46.61-.29,2.32-.28,5.02.29,7.28,1.59,6.31,10.89.38,16.71-4.61,8.32-7.64,15.41-16.1,21.62-25.55l10.69-27.06c1.83-4.1,5.76-5.9,10-3.89,1.51.71,3.5,2.3,3.96,3.63.63,1.85-.08,4.62-.25,7.04,5.61-7.08,12.2-16.49,19.98-13.05,5.84,2.58,6.12,8.51,4.96,15.19,6.54-8.45,15.26-22.08,24.86-17.18,4.04,2.06,5.93,5.82,5.91,10.74l-3.1,12.36c-2.17,8.67-5.85,16.44-7.7,25.77,6.43-7.28,12.43-14.64,16.67-23.09,3.7-7.38,10.73-26.04,15.6-28.17,3.78-1.65,8.18-.54,11.16,1.95,2.16,1.8,2.99,4.91,1.87,7.4l-8.83,19.59c-2.69,5.96-4.48,12.51-5.9,18.91-.16.71.69,2.44,1.28,2.78,3.65-2.56,6.67-5.37,9.44-8.76,10.88-13.31,19.49-28.02,26.38-43.78,1.75-4,5.9-4.54,9.65-3.46,5.48,1.58,8.61,6.1,7.05,11.85-6.41,23.67-18.1,54.29-30.12,75.6s-29.55,39.36-51.82,50.3c-9.1,4.47-18.33,7.64-28.41,8.15-7.21.36-18.18-1.09-19.56-6.27-.26-.97.88-3.24,1.88-3.45l9.41-2.02c38.19-10.14,65.23-37.26,81.05-73.42l-11.78,10.38c-5.19,3.4-11.59,3.8-16.8.44-4.3-2.78-5.78-7.62-6.18-12.64-6.41,8.8-14.55,21.74-23.83,17.67-8.8-3.86-5.84-16.62-3.11-26.4l4.99-17.92c-4.84,5.36-8.54,10.57-11.44,16.85l-14.13,30.64c-1.43,3.1-4.78,4.76-7.87,4.1-7.41-1.56-5.97-10.57-3.7-18.58l8.89-31.33c-3.47,2.96-5.56,6.32-7.79,10.07-7.05,11.84-12.77,24.17-17.77,37.01-1.19,3.06-3.26,4.99-6.36,4.88-2.74-.1-5.91-1.88-6.56-5.23-.59-3.07-.05-6.4.25-10.03-8.82,10.83-19.58,23.03-34.12,21.01-8.94-1.24-15.58-8.08-16.73-17.04ZM472.81,485.46c7.23-4.44,11.86-10.9,15.27-18.12,1.13-2.39,1.65-4.55,1.62-7.51-2.4,1.03-4.06,2.3-5.58,4.19-5.1,6.3-8.94,13.49-11.31,21.45Z"/>
      </g>
    </g>
  </g>
</svg>